<?xml version="1.0" encoding="utf-8"?>
<!-- Generator: Adobe Illustrator 15.1.0, SVG Export Plug-In  -->
<!DOCTYPE svg PUBLIC "-//W3C//DTD SVG 1.1//EN" "http://www.w3.org/Graphics/SVG/1.1/DTD/svg11.dtd" [
	<!ENTITY ns_flows "http://ns.adobe.com/Flows/1.0/">
]>
<svg version="1.1"
	 xmlns="http://www.w3.org/2000/svg" xmlns:xlink="http://www.w3.org/1999/xlink" xmlns:a="http://ns.adobe.com/AdobeSVGViewerExtensions/3.0/"
	 x="0px" y="0px" width="842px" height="595px" viewBox="-19 -126.531 842 595" enable-background="new -19 -126.531 842 595"
	 xml:space="preserve">
<defs>
</defs>
<path fill="#67BD46" d="M666.889,202.178c-11.838-11.914-26.229-17.955-42.771-17.955c-17.732,0-32.83,5.933-44.879,17.632
	c-12.188,11.824-18.111,26.013-18.111,43.368c0,16.795,6.104,31.351,18.139,43.258c12.047,11.931,26.76,17.979,43.729,17.979
	c17.207,0,31.492-5.86,43.67-17.911c12.158-12.041,18.066-26.213,18.066-43.326C684.731,228.345,678.895,214.266,666.889,202.178z
	 M622.93,274.724c-16.197,0-29.375-13.181-29.375-29.378c0-16.203,13.178-29.383,29.375-29.383c16.201,0,29.379,13.18,29.379,29.383
	C652.309,261.543,639.131,274.724,622.93,274.724z"/>
<path fill="#67BD46" d="M764.674,238.095v66.61h39.217v-61.991c0-17.007-3.955-30.369-11.752-39.714
	c-10.092-12.129-23.168-18.021-39.98-18.021c-14.658,0-26.693,5.082-36.797,15.539c-10.141,10.488-15.07,23.067-15.07,38.452v65.735
	h39.217v-66.61c0-13.11,8.756-14.527,12.52-14.527C755.831,223.567,764.674,224.984,764.674,238.095z"/>
<path fill="#67BD46" d="M677.088,66.645c-4.24-7.082-10.387-13.361-17.785-18.217c-7.029-4.585-15.385-8.124-24.771-10.404
	c-8.486-2.067-16.238-2.814-23.777-3.501l-0.66-0.083c-7.41-0.647-15.387-0.952-23.77-0.896
	c-33.117,0.287-64.285,6.525-90.383,12.603c-11.477,2.659-22.928,5.53-34.012,8.29c-16.328,4.119-33.211,8.347-49.842,11.786
	c-28.416,5.846-53.678,8.57-77.237,8.377c-2.041-0.003-4.057-0.104-6.07-0.105C240.45,76.207,85.376,0,85.376,0
	c23.432,17.144,50.429,33.214,73.244,44.635c27.86,13.683,54.062,24.53,80.005,33.019c32.617,10.442,61.692,16.148,88.967,17.455
	c27.798,1.409,57.492-0.895,91.005-7.072c20.006-3.645,39.676-8.236,58.715-12.718c8.916-2.131,17.795-4.211,26.674-6.147
	c22.854-5.106,52.865-10.866,82.574-10.778l1.406,0.003c6.152,0.063,12.502,0.368,18.779,0.877
	c6.602,0.682,13.471,1.403,18.943,2.792c10.746,2.583,19.02,8.064,23.33,15.481c1.053,1.858,1.98,3.889,2.588,5.735
	c0.238,1.028,0.758,6.512,1.139,11.027l0.516,5.877l7.326-0.171c0.23,0.031,23.65-0.499,31.486-0.463h0.738
	c15.699,0.24,29.086,1.288,40.99,3.174c15.172,2.422,26.207,5.911,33.654,10.729c3.213,1.995,8.945,5.054,9.861,12.579
	c0.209,0.564-9.439-5.083-13.668-5.631c-4.691-0.86-7.195-1.061-10.072-1.078c-0.844-0.017-1.664,0.012-2.504,0.018
	c-8.287,0.05-16.23,0.757-23.555,1.488c-27.029,2.802-53.943,7.058-88.066,13.776c-29.475,5.868-58.264,12.786-85.576,20.638
	c-32.828,9.441-55.375,16.88-82.438,29.034c-201.946,91.065-217.927,155.963-217.034,157.938c0,0,100.041-83.371,219.729-136.848
	c24.396-10.851,50.043-20.165,80.467-29.771c25.295-7.963,53.699-13.559,84.037-19.344c32.98-6.147,56.111-11.582,80.824-14.402
	c9.787-1.141,29.457-4.082,31.139-4.042c19.094,0.538,27.428,7.307,30.836,15.257c1.348-0.769,39.434-30.065-5.668-57.489
	c-26.455-16.083-92.277-16.939-93.447-17.029C681.27,76.025,678.473,68.977,677.088,66.645z"/>
<path d="M59.793,215.205H39.007v-8.006c0-8.076,1.899-20.53,5.646-25.104c3.666-4.476,8.754-6.893,15.141-7.198v-35.213
	l-1.301-0.035c-10.484,0.002-20.832,3.214-30.66,9.546c-9.855,6.351-17.292,14.647-22.105,24.662C1.924,181.695,0,191.359,0,202.594
	v101.653h39.007v-53.83h20.787V215.205z"/>
<path d="M199.914,304.247v-57.092c0-19.21-5.478-34.501-16.279-45.461c-10.786-10.941-25.859-16.489-44.798-16.489
	c-17.124,0-31.256,5.789-43.204,17.695c-11.941,11.904-17.748,26.013-17.748,43.135c0,17.617,5.74,31.844,17.549,43.488
	c11.655,11.504,26.467,17.338,44.026,17.338c2.047,0,4.287-0.156,6.682-0.466v-39.067c-2.42,0.762-4.945,1.147-7.555,1.147
	c-6.011,0-11.066-2.059-15.023-6.119c-3.931-4.028-5.924-9.185-5.924-15.325c0-5.911,2.171-11.079,6.456-15.363
	c4.286-4.284,9.454-6.456,15.364-6.456c6.55,0,11.865,2.431,15.799,7.228c3.746,4.58,5.646,10.66,5.646,18.074v53.733H199.914z"/>
<rect x="222.521" y="141.892" width="39.008" height="162.355"/>
<rect x="285.77" y="141.892" width="39.008" height="162.355"/>
<polygon points="357.543,304.247 402.206,304.247 368.406,228.978 390.727,187.694 349.274,187.694 329.855,227.219 "/>
<path d="M465.452,274.823c-6.992,0-14.205-3.05-18.465-9.058c-3.969-5.608-5.984-12.915-5.984-21.722
	c0-8.507,2.094-15.65,6.217-21.225c4.385-5.93,11.688-8.934,18.73-8.934c10.609,0,17.273,5.849,19.27,16.916l0.803,4.44h-46.867
	c-0.793,2.767-1.193,5.592-1.193,8.427c0,1.859,0.25,3.89,0.744,6.062h85.609c0.146-2.148,0.221-3.802,0.221-4.941
	c0-17.037-5.645-30.962-17.254-42.575c-11.611-11.613-25.58-17.257-42.701-17.257c-17.305,0-32.096,5.955-43.959,17.705
	c-12.02,11.901-17.863,26.088-17.863,43.373c0,17.364,5.78,31.509,17.671,43.244c11.74,11.583,26.469,17.459,43.775,17.459
	c12.912,0,24.924-3.849,35.752-11.442l-21.385-25.702C474.42,273.067,470.02,274.823,465.452,274.823z"/>
</svg>
