<?xml version="1.0" encoding="utf-8"?>
<!-- Generator: Adobe Illustrator 15.1.0, SVG Export Plug-In  -->
<!DOCTYPE svg PUBLIC "-//W3C//DTD SVG 1.1//EN" "http://www.w3.org/Graphics/SVG/1.1/DTD/svg11.dtd" [
	<!ENTITY ns_flows "http://ns.adobe.com/Flows/1.0/">
]>
<svg version="1.1"
	 xmlns="http://www.w3.org/2000/svg" xmlns:xlink="http://www.w3.org/1999/xlink" xmlns:a="http://ns.adobe.com/AdobeSVGViewerExtensions/3.0/"
	 x="0px" y="0px" width="842px" height="595px" viewBox="-23.032 -132.798 842 595"
	 enable-background="new -23.032 -132.798 842 595" xml:space="preserve">
<defs>
</defs>
<path fill="#67BD46" d="M531.853,145.206v181.38h105.895V157.792c0-46.32-10.663-82.697-31.718-108.157
	C578.769,16.615,543.447,0.568,498.031,0.568c-39.574,0-72.091,13.824-99.366,42.306c-27.411,28.557-40.703,62.807-40.703,104.717
	v178.995h105.928v-181.38c0-35.717,23.618-39.556,33.801-39.556C507.951,105.65,531.853,109.488,531.853,145.206z"/>
<path fill="#67BD46" d="M163.372,0C73.141,0,0,73.141,0,163.371C0,253.598,73.141,326.74,163.372,326.74
	c90.227,0,163.367-73.142,163.367-163.369C326.739,73.141,253.598,0,163.372,0z M163.382,241.082
	c-42.5,0-77.088-34.85-77.088-77.699c0-42.856,34.588-77.722,77.088-77.722c42.493,0,77.062,34.865,77.062,77.722
	C240.444,206.232,205.875,241.082,163.382,241.082z"/>
<path fill="#0F0D1E" d="M738.348,294.583c-5.077-0.465-8.389-1.625-10.446-3.665c-1.537-1.543-2.502-3.714-2.911-6.604h-20.923
	v4.368c0,8.262,2.138,14.47,6.547,18.979c2.449,2.533,4.896,4.21,7.251,4.987c1.783,0.584,5.703,1.38,14.27,1.83
	c5.428,0.346,9.235,1.719,11.667,4.199c2.086,2.137,3.264,5.15,3.587,9.18h20.919v-0.082c0-8.378-1.309-14.819-3.885-19.153
	C759.41,300.307,750.871,295.705,738.348,294.583z"/>
<path fill="#0F0D1E" d="M711.245,206.306c-6.445,6.548-9.581,14.393-9.581,23.967c0,4.72,1.054,9.391,3.132,13.878
	c2.079,4.498,4.889,8.231,8.371,11.113c6.092,5.061,14.199,7.627,24.086,7.627h55.233v-19.168h-54.251
	c-15.355,0-17.649-8.606-17.649-13.735c0-3.763,1.325-7.046,3.947-9.743c2.634-2.735,5.897-4.124,9.677-4.124
	c3.726,0,6.99,1.321,9.694,3.925c2.746,2.638,4.139,5.868,4.139,9.594c0,0.972-0.12,1.939-0.359,2.896h20.029
	c0.117-1.44,0.173-2.601,0.173-3.463c0-8.839-3.212-16.295-9.818-22.797c-6.626-6.505-14.265-9.675-23.366-9.675
	C725.344,196.601,717.668,199.779,711.245,206.306z"/>
<path fill="#0F0D1E" d="M711.312,117.889c-6.535,6.476-9.714,14.017-9.714,23.054c0,9.732,3.119,17.671,9.55,24.263
	c6.399,6.569,14.084,9.762,23.481,9.762c9.229,0,16.898-3.205,23.445-9.785c6.554-6.595,9.739-14.313,9.739-23.603
	c0-9.289-3.175-17.002-9.702-23.572c-6.523-6.562-14.208-9.754-23.482-9.754C725.49,108.254,717.866,111.405,711.312,117.889z
	 M744.684,131.853c2.792,2.678,4.206,5.98,4.206,9.792c0,3.782-1.414,7.054-4.217,9.74c-2.743,2.645-6.097,3.988-9.973,3.988
	c-3.913,0-7.282-1.329-10.01-3.954c-2.772-2.665-4.172-5.951-4.172-9.774c0-3.864,1.399-7.169,4.172-9.837
	c2.725-2.626,6.094-3.955,10.01-3.955C738.577,127.853,741.93,129.196,744.684,131.853z"/>
<path fill="#0F0D1E" d="M722.031,51.535h-20.125c-0.205,1.744-0.308,3.234-0.308,4.449c0,8.271,2.589,14.662,7.921,19.54
	c5.346,4.888,12.722,7.368,21.929,7.368h34.955V63.718H736.54c-12.711,0-14.61-6.742-14.61-10.768
	C721.929,52.489,721.963,52.017,722.031,51.535z"/>
<path fill="#0F0D1E" d="M763.702,15.444c2.406-4.575,3.67-9.501,3.752-14.643h-20.9c-0.515,3.961-1.939,6.935-4.255,8.854
	c-2.825,2.337-7.364,3.47-13.882,3.47h-3.579V1.296h-20.77v11.83h-27.01v19.173h54.323c9.274,0,16.74-1.837,22.199-5.461
	C757.804,24.007,761.21,20.171,763.702,15.444z"/>
</svg>
