<?xml version="1.0" encoding="utf-8"?>
<!-- Generator: Adobe Illustrator 12.0.0, SVG Export Plug-In . SVG Version: 6.00 Build 51448)  -->
<!DOCTYPE svg PUBLIC "-//W3C//DTD SVG 1.1//EN" "http://www.w3.org/Graphics/SVG/1.1/DTD/svg11.dtd" [
	<!ENTITY ns_svg "http://www.w3.org/2000/svg">
	<!ENTITY ns_xlink "http://www.w3.org/1999/xlink">
]>
<svg  version="1.1" id="Layer_1" xmlns="&ns_svg;" xmlns:xlink="&ns_xlink;" width="115.428" height="327.057"
	 viewBox="0 0 115.428 327.057" overflow="visible" enable-background="new 0 0 115.428 327.057" xml:space="preserve">
<path fill="#100F1E" d="M61.29,293.782c-5.077-0.465-8.39-1.625-10.446-3.665c-1.537-1.543-2.502-3.714-2.911-6.604H27.01v4.368
	c0,8.263,2.139,14.47,6.547,18.979c2.449,2.533,4.896,4.21,7.251,4.986c1.783,0.584,5.703,1.381,14.271,1.829
	c5.428,0.348,9.233,1.721,11.667,4.199c2.086,2.137,3.264,5.15,3.587,9.181h20.919v-0.082c0-8.378-1.311-14.818-3.885-19.152
	C82.352,299.507,73.813,294.904,61.29,293.782z"/>
<path fill="#100F1E" d="M34.187,205.505c-6.443,6.55-9.581,14.395-9.581,23.968c0,4.721,1.056,9.392,3.133,13.879
	c2.078,4.498,4.89,8.229,8.371,11.112c6.093,5.062,14.198,7.627,24.086,7.627h55.232v-19.168H61.177
	c-15.354,0-17.648-8.605-17.648-13.734c0-3.764,1.324-7.046,3.946-9.743c2.635-2.735,5.897-4.124,9.678-4.124
	c3.727,0,6.989,1.321,9.693,3.925c2.746,2.639,4.14,5.868,4.14,9.594c0,0.974-0.119,1.939-0.358,2.896h20.028
	c0.116-1.439,0.174-2.603,0.174-3.463c0-8.84-3.212-16.295-9.818-22.797c-6.626-6.506-14.265-9.677-23.366-9.677
	C48.286,195.8,40.61,198.978,34.187,205.505z"/>
<path fill="#100F1E" d="M34.254,117.088c-6.535,6.477-9.714,14.018-9.714,23.055c0,9.731,3.119,17.671,9.55,24.263
	c6.398,6.568,14.084,9.762,23.48,9.762c9.229,0,16.897-3.205,23.444-9.785c6.555-6.595,9.739-14.313,9.739-23.603
	c0-9.289-3.175-17.002-9.702-23.572c-6.522-6.562-14.208-9.754-23.481-9.754C48.432,107.453,40.808,110.604,34.254,117.088z
	 M67.626,131.052c2.792,2.679,4.206,5.98,4.206,9.792c0,3.782-1.414,7.055-4.217,9.74c-2.743,2.646-6.099,3.988-9.975,3.988
	c-3.913,0-7.281-1.329-10.01-3.954c-2.771-2.665-4.172-5.951-4.172-9.774c0-3.863,1.398-7.169,4.172-9.837
	c2.725-2.626,6.094-3.955,10.01-3.955C61.519,127.052,64.872,128.395,67.626,131.052z"/>
<path fill="#100F1E" d="M44.973,50.734H24.848c-0.205,1.744-0.308,3.233-0.308,4.449c0,8.271,2.589,14.661,7.921,19.54
	c5.346,4.888,12.722,7.367,21.929,7.367h34.955V62.917H59.481c-12.711,0-14.608-6.742-14.608-10.768
	C44.871,51.688,44.905,51.216,44.973,50.734z"/>
<path fill="#100F1E" d="M86.644,14.643C89.05,10.068,90.313,5.142,90.396,0H69.496c-0.517,3.961-1.939,6.936-4.255,8.854
	c-2.825,2.337-7.364,3.47-13.883,3.47H47.78V0.495H27.01v11.83H0v19.173h54.323c9.272,0,16.738-1.837,22.197-5.461
	C80.746,23.206,84.152,19.37,86.644,14.643z"/>
</svg>
